<?xml version="1.0" encoding="UTF-8" standalone="no"?>
<!-- Created with Inkscape (http://www.inkscape.org/) -->

<svg
   width="97.834854mm"
   height="15.074226mm"
   viewBox="0 0 97.834854 15.074226"
   version="1.1"
   id="svg5"
   xmlns="http://www.w3.org/2000/svg"
   xmlns:svg="http://www.w3.org/2000/svg">
  <defs
     id="defs2" />
  <g
     id="layer1"
     transform="translate(-24.693588,-161.1548)">
    <g
       id="SvgjsG2294"
       featurekey="hmhgWD-0"
       transform="matrix(0.0203915,0,0,0.0203915,24.693986,161.15605)"
       fill="#ff471f"
       style="fill:#ffffff">
      <g
         id="g264"
         style="fill:#ffffff">
        <path
           d="m 1168.6,327.5 c -57.1,-39.5 -153,-26.2 -216,-12.4 -43,9.4 -85.3,21.6 -127.8,32.9 -46.1,12.2 -62.5,18.5 -103.4,-8.2 -66,-43.1 -131.5,-87.2 -197.1,-131 116.7,-40.5 233.4,-79.4 351.9,-114.7 57,-17 118.3,-42.6 177.4,-49.6 38.7,-4.5 41.1,12 60.6,41.4 12.7,19.2 54.6,56.4 66.1,10.1 C 1187,69 1150.8,41.8 1132,28.2 1053.5,-28.6 954.9,13.4 871.5,40 764.4,74.3 658,110.8 551.3,146.5 527.8,154.4 491.4,173.4 466.4,168.7 446.5,165 425.7,147.6 406.5,139.2 358.4,118.3 306.6,107.8 255.3,98.1 203.6,88.4 152.9,80.4 100.4,90.2 66.7,96.5 6.8,107.8 0.8,148.1 c -10.8,72.3 87.7,117.2 144.9,119 52.7,1.7 108.6,-9.9 160.8,-16.7 44.7,-5.8 101.3,-23.1 146.4,-18.6 41.7,4.2 81.4,46.9 114.8,71.3 43.4,31.7 86.7,63.7 130,95.5 -41,18.4 -81.9,37.2 -123.1,55.3 -41.4,18.1 -56.9,23.2 -97.7,4.6 -76.1,-34.7 -156.8,-66.9 -242.8,-50.5 -75.9,14.4 -51,84.9 -1.1,113.9 32.6,18.9 45.9,18.7 81.3,22.7 34.6,4 66.1,27.5 102.1,32.2 44,5.7 74.4,-15.3 115.1,-17.2 35.7,-1.7 66.6,29.6 93.9,49.3 65.8,47.4 129.5,94.4 209.1,115.8 35.2,9.5 125.4,35.6 133.9,-19.9 3.9,-25.2 -13.4,-58 -35.6,-68.5 -11.2,-5.3 -25.5,-7.9 -37.6,-3.3 -25.8,9.7 -18.1,13.6 -10.4,38.7 -78.4,0 -150.6,-44.1 -213.2,-88.4 -13.5,-9.5 -67,-37.7 -61.9,-58.9 4.8,-20 77.2,-41.9 93.5,-49.6 43.7,-20.8 64.3,-31 111.7,-18 42.6,11.7 84.7,25.2 127.1,37.2 72.8,20.6 156.7,31 225.4,-11.6 57,-35.2 55.3,-117.5 1.2,-154.9 z m -984,-94.3 c -34.2,1.4 -149.2,-12.9 -146.9,-62.6 2.6,-54.5 140.7,-48.2 176.2,-44.9 36.2,3.3 70.8,13.5 105.3,24.7 27.9,9 82.7,15.1 80.9,46.2 -70.7,13.6 -143.5,33.6 -215.5,36.6 z m 112.9,277.1 c -28.7,-4.9 -102.3,-12.1 -76.6,-52 23,-35.7 82.1,-15.6 113.8,-8.9 27.8,5.9 119.4,20.5 114.8,50 -49.1,16.3 -101,19.6 -152,10.9 z M 1179,412.1 c -16.8,61.9 -121.8,55.6 -168.7,49.4 -35.6,-4.8 -70.4,-15.3 -104.8,-25.3 -14.7,-4.3 -40.8,-6.1 -52,-15.1 -13,-10.5 -10.3,-6.3 -9.8,-27 71.4,-18.3 144,-43.6 217.6,-50.1 39.4,-3.5 134.5,6.2 117.7,68.1 z"
           id="path262"
           style="fill:#ffffff" />
      </g>
    </g>
    <g
       id="SvgjsG2295"
       featurekey="1RRcwp-0"
       transform="matrix(0.85562893,0,0,0.85562893,54.061016,157.3966)"
       fill="#ffffff"
       style="fill:#ffffff">
      <path
         d="M 6.62,20.12 C 6.16,20.12 5.68,20.06 5.18,19.96 3.7,19.66 2.26,18.94 1,17.84 l -0.38,-0.34 1.76,-2 0.38,0.34 c 0.92,0.8 1.94,1.34 2.94,1.54 h 0.02 c 0.3,0.06 0.6,0.1 0.9,0.1 0.5,0 0.96,-0.1 1.34,-0.28 C 8.44,17 9,16.56 9,15.74 9,15.3 8.78,14.96 8.32,14.68 7.76,14.34 7,14.16 6.46,14.06 6.22,14.02 4.18,13.6 3.24,13.08 2.62,12.7 2.14,12.22 1.8,11.66 1.46,11.08 1.3,10.44 1.3,9.74 1.3,8.98 1.54,8.22 2,7.52 2.44,6.94 3.04,6.46 3.76,6.12 4.48,5.78 5.28,5.6 6.14,5.6 c 0.34,0 0.7,0.04 1.06,0.08 1.32,0.24 2.62,0.84 3.76,1.8 L 11.34,7.8 9.64,9.86 9.26,9.54 C 7.96,8.48 6.84,8.24 6.12,8.24 5.66,8.24 5.24,8.34 4.88,8.5 4.32,8.76 3.96,9.24 3.96,9.72 c 0,0.44 0.16,0.72 0.54,0.98 0.38,0.26 0.96,0.46 1.88,0.66 0.12,0.02 0.28,0.06 0.44,0.1 0.84,0.16 1.96,0.4 2.74,0.86 0.68,0.36 1.2,0.86 1.56,1.44 0.36,0.58 0.54,1.26 0.54,1.98 0,0.9 -0.24,1.7 -0.72,2.38 C 10.52,18.7 9.9,19.2 9.08,19.6 8.38,19.96 7.6,20.12 6.62,20.12 Z m 11.32,0.06 c -1.26,0 -2.46,-0.48 -3.38,-1.38 -0.9,-0.92 -1.4,-2.12 -1.4,-3.38 0,-1.26 0.5,-2.46 1.4,-3.38 0.9,-0.9 2.1,-1.38 3.38,-1.38 0.84,0 1.6,0.3 2.26,0.9 l 0.1,0.08 v -0.8 h 2.42 V 20 H 20.3 v -0.72 l -0.1,0.1 c -0.72,0.7 -1.54,0.8 -2.26,0.8 z m 0,-7.18 c -1.28,0 -2.36,1.12 -2.36,2.42 0,1.32 1.08,2.42 2.36,2.42 1.28,0 2.36,-1.1 2.36,-2.42 0,-1.3 -1.08,-2.42 -2.36,-2.42 z m 16.16,7 h -2.52 v -4.9 c 0,-1.08 -0.86,-1.92 -1.94,-1.92 -1.04,0 -1.94,0.86 -1.94,1.92 V 20 h -2.5 v -9.16 h 2.5 v 0.66 c 0.62,-0.62 1.28,-0.84 1.94,-0.84 1.2,0 2.32,0.46 3.16,1.28 0.84,0.86 1.3,1.98 1.3,3.16 z m 6.42,0.18 c -1.26,0 -2.46,-0.48 -3.38,-1.38 -0.9,-0.92 -1.4,-2.12 -1.4,-3.38 0,-1.26 0.5,-2.46 1.4,-3.38 0.9,-0.9 2.1,-1.38 3.38,-1.38 0.84,0 1.6,0.3 2.26,0.9 l 0.1,0.08 V 5.32 H 45.3 V 20 h -2.42 v -0.72 l -0.1,0.1 c -0.72,0.7 -1.54,0.8 -2.26,0.8 z m 0,-7.18 c -1.28,0 -2.36,1.12 -2.36,2.42 0,1.32 1.08,2.42 2.36,2.42 1.28,0 2.36,-1.1 2.36,-2.42 0,-1.3 -1.08,-2.42 -2.36,-2.42 z m 11.98,7.18 c -0.72,0 -1.54,-0.1 -2.26,-0.8 l -0.1,-0.1 V 20 H 47.72 V 5.32 h 2.42 v 6.32 l 0.1,-0.08 c 0.66,-0.6 1.42,-0.9 2.26,-0.9 1.28,0 2.48,0.48 3.38,1.38 0.9,0.92 1.4,2.12 1.4,3.38 0,1.26 -0.5,2.46 -1.4,3.38 -0.92,0.9 -2.12,1.38 -3.38,1.38 z m -2.36,-4.76 c 0,1.32 1.08,2.42 2.36,2.42 1.28,0 2.36,-1.1 2.36,-2.42 0,-1.3 -1.08,-2.42 -2.36,-2.42 -1.28,0 -2.36,1.12 -2.36,2.42 z m 13.26,4.8 c -1.24,0 -2.46,-0.5 -3.4,-1.4 -0.9,-0.94 -1.4,-2.16 -1.4,-3.4 0,-1.26 0.5,-2.48 1.4,-3.4 0.92,-0.88 2.12,-1.38 3.4,-1.38 1.32,0 2.52,0.5 3.38,1.38 0.92,0.92 1.42,2.12 1.42,3.4 0,1.28 -0.5,2.48 -1.42,3.4 -0.9,0.9 -2.1,1.4 -3.38,1.4 z m 0,-7.3 c -1.34,0 -2.44,1.12 -2.44,2.5 0,1.38 1.1,2.5 2.44,2.5 1.36,0 2.46,-1.12 2.46,-2.5 0,-1.38 -1.1,-2.5 -2.46,-2.5 z M 80.02,20 H 76.84 L 74.38,17.04 71.94,20 h -3.2 l 4.1,-4.82 -3.7,-4.34 h 3.2 l 2.04,2.46 2.04,-2.46 h 3.18 l -3.66,4.34 z"
         id="path267"
         style="fill:#ffffff" />
    </g>
  </g>
</svg>
